<svg xmlns="http://www.w3.org/2000/svg" xmlns:xlink="http://www.w3.org/1999/xlink" width="1366" zoomAndPan="magnify" viewBox="0 0 1024.5 576" height="768" preserveAspectRatio="xMidYMid meet" version="1.0"><defs><filter x="0%" y="0%" width="100%" height="100%" id="deea089a02"><feColorMatrix values="0 0 0 0 1 0 0 0 0 1 0 0 0 0 1 0 0 0 1 0" color-interpolation-filters="sRGB"/></filter><clipPath id="97cbe0513f"><path d="M 0 0.140625 L 1024 0.140625 L 1024 575.859375 L 0 575.859375 Z M 0 0.140625 " clip-rule="nonzero"/></clipPath><mask id="6c786eae0d"><g filter="url(#deea089a02)"><rect x="-102.45" width="1229.4" fill="#000000" y="-57.6" height="691.2" fill-opacity="0.5"/></g></mask><clipPath id="c0345d592d"><path d="M 0.652344 0.117188 L 89 0.117188 L 89 102 L 0.652344 102 Z M 0.652344 0.117188 " clip-rule="nonzero"/></clipPath><clipPath id="3087946f48"><path d="M 94 0.117188 L 183 0.117188 L 183 103 L 94 103 Z M 94 0.117188 " clip-rule="nonzero"/></clipPath><clipPath id="4176b791b0"><path d="M 236 83 L 325 83 L 325 185.277344 L 236 185.277344 Z M 236 83 " clip-rule="nonzero"/></clipPath><clipPath id="5273cdbde8"><path d="M 331 83 L 419.699219 83 L 419.699219 185.277344 L 331 185.277344 Z M 331 83 " clip-rule="nonzero"/></clipPath><clipPath id="3cc1a748e2"><rect x="0" width="421" y="0" height="187"/></clipPath></defs><g clip-path="url(#97cbe0513f)"><path fill="#ffffff" d="M 0 0.140625 L 1024 0.140625 L 1024 575.859375 L 0 575.859375 Z M 0 0.140625 " fill-opacity="1" fill-rule="nonzero"/><path fill="#1f1f1f" d="M 0 0.140625 L 1024 0.140625 L 1024 575.859375 L 0 575.859375 Z M 0 0.140625 " fill-opacity="1" fill-rule="nonzero"/></g><g mask="url(#6c786eae0d)"><g transform="matrix(1, 0, 0, 1, 580, 73)"><g clip-path="url(#3cc1a748e2)"><g clip-path="url(#c0345d592d)"><path fill="#742b90" d="M 88.6875 25.609375 L 44.671875 0.28125 L 0.652344 25.609375 L 0.652344 76.261719 L 44.671875 101.585938 L 88.6875 76.261719 Z M 78.929688 70.320312 L 45.019531 89.828125 L 11.109375 70.308594 L 11.109375 31.296875 L 45.019531 11.785156 L 78.929688 31.296875 Z M 78.929688 70.320312 " fill-opacity="1" fill-rule="nonzero"/></g><path fill="#fec973" d="M 90.867188 82.910156 L 46.851562 108.234375 L 46.851562 158.886719 L 90.867188 184.210938 L 134.886719 158.886719 L 134.886719 108.234375 Z M 125.128906 153.207031 L 91.21875 172.71875 L 57.308594 153.207031 L 57.308594 114.1875 L 91.21875 94.675781 L 125.128906 114.1875 Z M 125.128906 153.207031 " fill-opacity="1" fill-rule="nonzero"/><g clip-path="url(#3087946f48)"><path fill="#b95ea4" d="M 138.871094 0.726562 L 94.851562 26.054688 L 94.851562 76.707031 L 138.871094 102.03125 L 182.886719 76.707031 L 182.886719 26.042969 Z M 172.382812 70.714844 L 138.472656 90.226562 L 104.5625 70.714844 L 104.5625 31.695312 L 138.472656 12.183594 L 172.382812 31.695312 Z M 172.382812 70.714844 " fill-opacity="1" fill-rule="nonzero"/></g><path fill="#ffe3b2" d="M 186.171875 82.878906 L 142.15625 108.207031 L 142.15625 158.855469 L 186.171875 184.183594 L 230.1875 158.855469 L 230.1875 108.207031 Z M 220.496094 153.207031 L 186.589844 172.71875 L 152.679688 153.207031 L 152.679688 114.1875 L 186.589844 94.675781 L 220.496094 114.1875 Z M 220.496094 153.207031 " fill-opacity="1" fill-rule="nonzero"/><path fill="#742b90" d="M 278.1875 26.546875 L 234.171875 1.222656 L 190.15625 26.546875 L 190.15625 77.199219 L 234.171875 102.527344 L 278.1875 77.199219 Z M 268.429688 71.257812 L 234.519531 90.769531 L 200.613281 71.257812 L 200.613281 32.238281 L 234.519531 12.726562 L 268.429688 32.238281 Z M 268.429688 71.257812 " fill-opacity="1" fill-rule="nonzero"/><g clip-path="url(#4176b791b0)"><path fill="#fec973" d="M 280.371094 83.847656 L 236.351562 109.175781 L 236.351562 159.828125 L 280.371094 185.152344 L 324.386719 159.828125 L 324.386719 109.175781 Z M 314.628906 154.148438 L 280.71875 173.65625 L 246.808594 154.148438 L 246.808594 115.125 L 280.71875 95.617188 L 314.628906 115.125 Z M 314.628906 154.148438 " fill-opacity="1" fill-rule="nonzero"/></g><path fill="#b95ea4" d="M 328.371094 1.660156 L 284.351562 26.984375 L 284.351562 77.636719 L 328.371094 102.960938 L 372.386719 77.636719 L 372.386719 26.984375 Z M 361.882812 71.644531 L 327.972656 91.15625 L 294.0625 71.644531 L 294.0625 32.636719 L 327.972656 13.125 L 361.882812 32.636719 L 361.882812 71.65625 Z M 361.882812 71.644531 " fill-opacity="1" fill-rule="nonzero"/><g clip-path="url(#5273cdbde8)"><path fill="#ffe3b2" d="M 375.671875 83.820312 L 331.65625 109.144531 L 331.65625 159.796875 L 375.671875 185.125 L 419.691406 159.796875 L 419.691406 109.144531 Z M 410 154.148438 L 376.089844 173.65625 L 342.179688 154.148438 L 342.179688 115.125 L 376.089844 95.617188 L 410 115.125 Z M 410 154.148438 " fill-opacity="1" fill-rule="nonzero"/></g></g></g></g></svg>